# Blender v2.79 (sub 0) OBJ File: 'CBoard.blend'
# www.blender.org
o O_Frame_Ramme_001
v -1.097873 15.100234 -0.006216
v 15.100662 15.100233 -0.006216
v 17.100485 17.099966 -0.106204
v -3.097693 17.099968 -0.106204
v -1.097873 15.100234 -0.406248
v 15.100662 15.100233 -0.406248
v 17.100485 17.099966 -0.406249
v -3.097693 17.099968 -0.406249
v 17.100483 -3.098123 -0.406245
v 15.100661 -1.098303 -0.406246
v 17.100483 -3.098123 -0.106200
v 15.100661 -1.098303 -0.006214
v -3.097695 -3.098122 -0.406245
v -1.097874 -1.098302 -0.406246
v -3.097695 -3.098122 -0.106200
v -1.097874 -1.098302 -0.006214
vt 0.896080 0.106187
vt 0.992829 0.986628
vt 0.896081 0.889876
vt 0.019806 0.500000
vt 0.029708 0.900990
vt 0.019806 0.900990
vt 0.069322 1.000000
vt 0.061894 0.500000
vt 0.069322 0.500000
vt 0.549503 0.049505
vt 0.500000 0.500000
vt 0.500000 0.000000
vt 0.950495 0.049505
vt 0.039611 0.500000
vt 0.047039 0.999998
vt 0.039611 0.999998
vt 0.009903 0.500000
vt 0.019806 0.500000
vt 0.992828 0.009435
vt 0.112388 0.106187
vt 0.015636 0.009435
vt 0.950495 0.450495
vt 1.000000 0.500000
vt 0.047039 0.500000
vt 0.054467 0.999998
vt 0.047039 0.999998
vt 0.009903 0.500000
vt 0.000000 0.900990
vt 0.000000 0.500000
vt 0.112388 0.889876
vt 0.015636 0.986628
vt 0.054467 0.500000
vt 0.061894 1.000000
vt 0.054467 1.000000
vt 0.039611 0.900990
vt 0.029708 0.500000
vt 0.039611 0.500000
vt 1.000000 0.000000
vt 0.029708 0.500000
vt 0.061894 1.000000
vt 0.549503 0.450495
vt 0.047039 0.500000
vt 0.009903 0.900990
vt 0.009903 0.900990
vt 0.061894 0.500000
vt 0.029708 0.900990
vn 0.0000 0.0499 0.9988
vn -0.0000 -1.0000 0.0000
vn 0.0000 1.0000 0.0000
vn 0.0000 -0.0000 -1.0000
vn 1.0000 -0.0000 0.0000
vn -1.0000 0.0000 0.0000
vn 0.0499 0.0000 0.9988
vn -0.0499 0.0000 0.9988
vn -0.0000 -0.0499 0.9988
s 1
f 2/1/1 4/2/1 1/3/1
f 1/4/2 6/5/2 2/6/2
f 3/7/3 8/8/3 4/9/3
f 6/10/4 8/11/4 7/12/4
f 7/12/4 10/13/4 6/10/4
f 7/14/5 11/15/5 9/16/5
f 2/6/6 10/17/6 12/18/6
f 3/19/7 12/20/7 11/21/7
f 8/11/4 14/22/4 13/23/4
f 13/24/6 4/25/6 8/26/6
f 1/27/5 14/28/5 5/29/5
f 16/30/8 4/2/8 15/31/8
f 16/30/9 11/21/9 12/20/9
f 15/32/2 9/33/2 11/34/2
f 12/35/3 14/36/3 16/37/3
f 14/22/4 9/38/4 13/23/4
f 2/1/1 3/19/1 4/2/1
f 1/4/2 5/39/2 6/5/2
f 3/7/3 7/40/3 8/8/3
f 6/10/4 5/41/4 8/11/4
f 7/12/4 9/38/4 10/13/4
f 7/14/5 3/42/5 11/15/5
f 2/6/6 6/43/6 10/17/6
f 3/19/7 2/1/7 12/20/7
f 8/11/4 5/41/4 14/22/4
f 13/24/6 15/32/6 4/25/6
f 1/27/5 16/44/5 14/28/5
f 16/30/8 1/3/8 4/2/8
f 16/30/9 15/31/9 11/21/9
f 15/32/2 13/45/2 9/33/2
f 12/35/3 10/46/3 14/36/3
f 14/22/4 10/13/4 9/38/4
o W_Checker_Plane
v 1.001934 15.000161 -0.006216
v 3.001754 15.000161 -0.006216
v 1.001934 13.000427 -0.006216
v 5.001575 15.000161 -0.006216
v 7.001395 15.000160 -0.006216
v 5.001575 13.000427 -0.006216
v 3.001754 13.000341 -0.006216
v 5.001575 13.000341 -0.006216
v 5.001575 11.000607 -0.006216
v 9.001215 15.000160 -0.006216
v 11.001036 15.000160 -0.006216
v 9.001215 13.000426 -0.006216
v 13.000855 15.000160 -0.006216
v 15.000677 15.000160 -0.006216
v 15.000677 13.000340 -0.006216
v 13.000855 13.000426 -0.006216
v 7.001395 13.000340 -0.006216
v 9.001215 13.000340 -0.006216
v 7.001395 11.000606 -0.006216
v 11.001036 13.000340 -0.006216
v 13.000855 13.000340 -0.006216
v -0.997886 13.000341 -0.006216
v 1.001934 13.000341 -0.006216
v -0.997886 11.000607 -0.006216
v -0.997886 9.000786 -0.006215
v -0.997886 7.000966 -0.006215
v 7.001394 9.000785 -0.006215
v 5.001574 9.000786 -0.006215
v 5.001574 7.000965 -0.006215
v 7.001394 7.000965 -0.006215
v 9.001215 7.000965 -0.006215
v 11.001036 7.000965 -0.006215
v 13.000855 7.000965 -0.006215
v 15.000677 7.000965 -0.006215
v 15.000676 5.001144 -0.006215
v 1.001933 7.000966 -0.006215
v 3.001754 7.000966 -0.006215
v -0.997886 5.001145 -0.006215
v 1.001933 5.001145 -0.006215
v -0.997887 3.001325 -0.006214
v 11.001035 5.001144 -0.006215
v 13.000854 5.001144 -0.006215
v 7.001394 5.001144 -0.006215
v 9.001214 5.001144 -0.006215
v 3.001754 5.001145 -0.006215
v 5.001574 5.001144 -0.006215
v 5.001574 3.001325 -0.006214
v 7.001394 3.001325 -0.006214
v 9.001214 3.001325 -0.006214
v 11.001035 3.001325 -0.006214
v 13.000854 3.001324 -0.006214
v 15.000676 3.001324 -0.006214
v 15.000676 1.001504 -0.006214
v 1.001933 3.001325 -0.006214
v 3.001753 3.001325 -0.006214
v 1.001934 11.000607 -0.006216
v 3.001754 11.000607 -0.006216
v 3.001754 9.000786 -0.006215
v 1.001934 9.000786 -0.006215
v 9.001215 11.000606 -0.006216
v 11.001036 11.000606 -0.006216
v 11.001036 9.000785 -0.006215
v 9.001215 9.000785 -0.006215
v 13.000855 11.000606 -0.006216
v 15.000677 11.000606 -0.006216
v 15.000677 9.000785 -0.006215
v 13.000855 9.000785 -0.006215
v -0.997887 1.001505 -0.006214
v 1.001933 1.001505 -0.006214
v 1.001933 -0.998315 -0.006214
v -0.997887 -0.998315 -0.006214
v 11.001035 1.001504 -0.006214
v 13.000854 1.001504 -0.006214
v 13.000854 -0.998316 -0.006214
v 11.001035 -0.998316 -0.006214
v 7.001394 1.001505 -0.006214
v 9.001214 1.001504 -0.006214
v 9.001214 -0.998316 -0.006214
v 7.001394 -0.998316 -0.006214
v 3.001753 1.001505 -0.006214
v 5.001574 1.001505 -0.006214
v 5.001574 -0.998315 -0.006214
v 3.001753 -0.998315 -0.006214
vt 0.333341 0.666667
vt 0.500000 0.500000
vt 0.500000 0.666667
vt 0.500000 0.666674
vt 0.666667 0.833333
vt 0.500000 0.833333
vt 0.999993 0.666667
vt 0.833333 0.500000
vt 0.999993 0.500000
vt 0.333334 0.166667
vt 0.500000 0.000000
vt 0.500000 0.166667
vt 0.500000 0.000007
vt 0.666667 0.166667
vt 0.500000 0.166667
vt 0.000000 0.500007
vt 0.166667 0.666667
vt 0.000000 0.666667
vt 0.833333 0.333333
vt 0.999993 0.500000
vt 0.833333 0.500000
vt 0.833333 0.166667
vt 0.999993 0.333333
vt 0.833334 0.333333
vt 0.833333 0.666667
vt 0.999993 0.833333
vt 0.833333 0.833333
vt 0.166667 0.333333
vt 0.333333 0.166667
vt 0.333333 0.333333
vt 0.500000 0.500000
vt 0.333333 0.333333
vt 0.500000 0.333334
vt 0.500000 0.500000
vt 0.666667 0.333333
vt 0.666667 0.500000
vt 0.333333 0.833333
vt 0.166667 0.666667
vt 0.333333 0.666667
vt 0.333333 0.166667
vt 0.166667 0.000000
vt 0.333333 0.000000
vt 0.333334 0.333333
vt 0.500000 0.166667
vt 0.500000 0.333333
vt 0.166667 0.500000
vt 0.000000 0.333333
vt 0.166667 0.333333
vt 0.166667 0.500000
vt 0.333333 0.333333
vt 0.333333 0.500000
vt 0.666667 0.500000
vt 0.833333 0.333333
vt 0.833333 0.500000
vt 0.000000 1.000000
vt 0.166667 0.833333
vt 0.166667 1.000000
vt 0.833333 0.166667
vt 1.000000 0.000000
vt 1.000000 0.166667
vt 0.333333 0.833333
vt 0.500000 0.666667
vt 0.500000 0.833333
vt 0.500000 0.333333
vt 0.666667 0.166667
vt 0.666667 0.333333
vt 0.833333 0.166667
vt 0.666667 0.000000
vt 0.833333 0.000000
vt 0.000000 0.333333
vt 0.166667 0.166667
vt 0.166667 0.333333
vt 0.833333 0.166667
vt 0.666667 0.333333
vt 0.666667 0.166667
vt 0.166667 0.666667
vt 0.333333 0.500000
vt 0.333333 0.666667
vt 0.500000 0.666667
vt 0.666667 0.500000
vt 0.666667 0.666667
vt 0.000000 0.166667
vt 0.166667 0.000000
vt 0.166667 0.166667
vt 0.166667 0.833333
vt 0.000000 0.666667
vt 0.166667 0.666667
vt 0.166667 1.000000
vt 0.333333 0.833333
vt 0.333333 1.000000
vt 0.833333 0.833333
vt 0.666667 0.666667
vt 0.833333 0.666667
vt 0.666667 0.500000
vt 0.833333 0.666667
vt 0.666667 0.666667
vt 0.333333 0.500000
vt 0.666667 0.666667
vt 0.833333 0.666667
vt 0.333333 0.000000
vt 0.666667 0.000000
vt 0.166667 0.500000
vt 0.999993 0.333333
vt 0.999993 0.166667
vt 0.999993 0.666667
vt 0.166667 0.166667
vt 0.333334 0.500000
vt 0.500000 0.333333
vt 0.166667 0.833333
vt 0.166667 0.166667
vt 0.333333 0.166667
vt 0.000000 0.500000
vt 0.166667 0.333333
vt 0.666667 0.333333
vt 0.000000 0.833333
vt 0.833333 0.000000
vt 0.333333 0.666667
vt 0.500000 0.166667
vt 0.666667 0.166667
vt 0.000000 0.166667
vt 0.833333 0.333333
vt 0.166667 0.500000
vt 0.500000 0.500000
vt 0.000000 0.000000
vt 0.000000 0.833333
vt 0.166667 0.833333
vt 0.666667 0.833333
vt 0.833333 0.500000
vn 0.0000 0.0000 1.0000
s 1
f 19/47/10 18/48/10 17/49/10
f 22/50/10 21/51/10 20/52/10
f 25/53/10 23/54/10 73/55/10
f 43/56/10 25/57/10 44/58/10
f 28/59/10 27/60/10 26/61/10
f 32/62/10 30/63/10 29/64/10
f 76/65/10 33/66/10 35/67/10
f 80/68/10 36/69/10 77/70/10
f 72/71/10 38/72/10 40/73/10
f 52/74/10 41/75/10 42/76/10
f 49/77/10 78/78/10 48/79/10
f 47/80/10 43/81/10 46/82/10
f 53/83/10 44/84/10 74/85/10
f 59/86/10 45/87/10 62/88/10
f 57/89/10 47/90/10 60/91/10
f 51/92/10 49/93/10 58/94/10
f 61/95/10 52/96/10 55/97/10
f 70/98/10 54/99/10 56/100/10
f 67/101/10 57/102/10 66/103/10
f 65/104/10 59/105/10 64/106/10
f 63/107/10 61/108/10 71/109/10
f 92/110/10 63/111/10 97/112/10
f 88/113/10 65/114/10 93/115/10
f 69/116/10 67/117/10 89/118/10
f 96/119/10 70/120/10 85/121/10
f 74/122/10 72/123/10 75/124/10
f 78/125/10 76/126/10 79/127/10
f 82/128/10 80/129/10 83/130/10
f 87/131/10 85/132/10 84/133/10
f 90/134/10 88/135/10 91/136/10
f 94/137/10 92/138/10 95/139/10
f 99/140/10 97/141/10 96/142/10
f 19/47/10 23/143/10 18/48/10
f 22/50/10 33/144/10 21/51/10
f 25/53/10 24/145/10 23/54/10
f 43/56/10 35/146/10 25/57/10
f 28/59/10 36/147/10 27/60/10
f 32/62/10 31/148/10 30/63/10
f 76/65/10 34/149/10 33/66/10
f 80/68/10 37/150/10 36/69/10
f 72/71/10 39/151/10 38/72/10
f 52/74/10 75/152/10 41/75/10
f 49/77/10 83/153/10 78/78/10
f 47/80/10 79/154/10 43/81/10
f 53/83/10 45/155/10 44/84/10
f 59/86/10 46/156/10 45/87/10
f 57/89/10 48/157/10 47/90/10
f 51/92/10 50/158/10 49/93/10
f 61/95/10 53/159/10 52/96/10
f 70/98/10 55/160/10 54/99/10
f 67/101/10 58/161/10 57/102/10
f 65/104/10 60/162/10 59/105/10
f 63/107/10 62/163/10 61/108/10
f 92/110/10 64/164/10 63/111/10
f 88/113/10 66/165/10 65/114/10
f 69/116/10 68/166/10 67/117/10
f 96/119/10 71/167/10 70/120/10
f 74/122/10 73/168/10 72/123/10
f 78/125/10 77/169/10 76/126/10
f 82/128/10 81/170/10 80/129/10
f 87/131/10 86/171/10 85/132/10
f 90/134/10 89/172/10 88/135/10
f 94/137/10 93/173/10 92/138/10
f 99/140/10 98/174/10 97/141/10
